<mxfile host="Electron" modified="2023-10-27T11:18:21.071Z" agent="Mozilla/5.0 (X11; Linux x86_64) AppleWebKit/537.36 (KHTML, like Gecko) draw.io/21.7.5 Chrome/114.0.5735.289 Electron/25.8.1 Safari/537.36" etag="lOKnQYJlfXzIhzdrM79w" version="21.7.5" type="device">
  <diagram name="Page-1" id="EMl_EYVCzf8fT-FiKfYn">
    <mxGraphModel dx="1434" dy="843" grid="1" gridSize="10" guides="1" tooltips="1" connect="1" arrows="1" fold="1" page="1" pageScale="1" pageWidth="827" pageHeight="1169" math="0" shadow="0">
      <root>
        <mxCell id="0" />
        <mxCell id="1" parent="0" />
        <mxCell id="_V5pevZy3DnA9DBT0Rbr-96" value="" style="group" parent="1" vertex="1" connectable="0">
          <mxGeometry x="56" y="268" width="940" height="522" as="geometry" />
        </mxCell>
        <mxCell id="_V5pevZy3DnA9DBT0Rbr-95" value="" style="rounded=0;whiteSpace=wrap;html=1;" parent="_V5pevZy3DnA9DBT0Rbr-96" vertex="1">
          <mxGeometry width="940" height="522" as="geometry" />
        </mxCell>
        <mxCell id="_V5pevZy3DnA9DBT0Rbr-1" value="NonRT RIC / OAM" style="rounded=0;whiteSpace=wrap;html=1;fillColor=#d5e8d4;strokeColor=#82b366;" parent="_V5pevZy3DnA9DBT0Rbr-96" vertex="1">
          <mxGeometry x="16.141176470588235" y="22.517647058823528" width="737.8823529411764" height="102.35294117647058" as="geometry" />
        </mxCell>
        <mxCell id="_V5pevZy3DnA9DBT0Rbr-4" value="RU" style="whiteSpace=wrap;html=1;aspect=fixed;" parent="_V5pevZy3DnA9DBT0Rbr-96" vertex="1">
          <mxGeometry x="73.78823529411764" y="442.1647058823529" width="51.17647058823529" height="51.17647058823529" as="geometry" />
        </mxCell>
        <mxCell id="_V5pevZy3DnA9DBT0Rbr-5" value="RU" style="whiteSpace=wrap;html=1;aspect=fixed;" parent="_V5pevZy3DnA9DBT0Rbr-96" vertex="1">
          <mxGeometry x="166.02352941176468" y="442.1647058823529" width="51.17647058823529" height="51.17647058823529" as="geometry" />
        </mxCell>
        <mxCell id="_V5pevZy3DnA9DBT0Rbr-6" value="RU" style="whiteSpace=wrap;html=1;aspect=fixed;" parent="_V5pevZy3DnA9DBT0Rbr-96" vertex="1">
          <mxGeometry x="258.25882352941176" y="442.1647058823529" width="51.17647058823529" height="51.17647058823529" as="geometry" />
        </mxCell>
        <mxCell id="_V5pevZy3DnA9DBT0Rbr-8" value="RU" style="whiteSpace=wrap;html=1;aspect=fixed;" parent="_V5pevZy3DnA9DBT0Rbr-96" vertex="1">
          <mxGeometry x="431.2" y="442.1647058823529" width="51.17647058823529" height="51.17647058823529" as="geometry" />
        </mxCell>
        <mxCell id="_V5pevZy3DnA9DBT0Rbr-9" value="RU" style="whiteSpace=wrap;html=1;aspect=fixed;" parent="_V5pevZy3DnA9DBT0Rbr-96" vertex="1">
          <mxGeometry x="523.435294117647" y="442.1647058823529" width="51.17647058823529" height="51.17647058823529" as="geometry" />
        </mxCell>
        <mxCell id="_V5pevZy3DnA9DBT0Rbr-10" value="RU" style="whiteSpace=wrap;html=1;aspect=fixed;" parent="_V5pevZy3DnA9DBT0Rbr-96" vertex="1">
          <mxGeometry x="615.6705882352941" y="442.1647058823529" width="51.17647058823529" height="51.17647058823529" as="geometry" />
        </mxCell>
        <mxCell id="_V5pevZy3DnA9DBT0Rbr-35" value="" style="group" parent="_V5pevZy3DnA9DBT0Rbr-96" vertex="1" connectable="0">
          <mxGeometry x="96.84705882352941" y="186.28235294117644" width="219.05882352941174" height="194.4705882352941" as="geometry" />
        </mxCell>
        <mxCell id="_V5pevZy3DnA9DBT0Rbr-2" value="" style="whiteSpace=wrap;html=1;aspect=fixed;" parent="_V5pevZy3DnA9DBT0Rbr-35" vertex="1">
          <mxGeometry width="194.4705882352941" height="194.4705882352941" as="geometry" />
        </mxCell>
        <mxCell id="_V5pevZy3DnA9DBT0Rbr-12" value="NearRT RIC" style="rounded=1;whiteSpace=wrap;html=1;fillColor=#fff2cc;strokeColor=#d6b656;" parent="_V5pevZy3DnA9DBT0Rbr-35" vertex="1">
          <mxGeometry x="11.52941176470588" y="51.17647058823529" width="103.76470588235293" height="38.89411764705882" as="geometry" />
        </mxCell>
        <mxCell id="_V5pevZy3DnA9DBT0Rbr-14" value="DU" style="rounded=1;whiteSpace=wrap;html=1;" parent="_V5pevZy3DnA9DBT0Rbr-35" vertex="1">
          <mxGeometry x="23.05882352941176" y="114.63529411764705" width="57.647058823529406" height="46.05882352941176" as="geometry" />
        </mxCell>
        <mxCell id="_V5pevZy3DnA9DBT0Rbr-15" value="DU" style="rounded=1;whiteSpace=wrap;html=1;" parent="_V5pevZy3DnA9DBT0Rbr-35" vertex="1">
          <mxGeometry x="132.58823529411762" y="114.63529411764705" width="57.647058823529406" height="46.05882352941176" as="geometry" />
        </mxCell>
        <mxCell id="_V5pevZy3DnA9DBT0Rbr-22" value="CU" style="rounded=1;whiteSpace=wrap;html=1;" parent="_V5pevZy3DnA9DBT0Rbr-35" vertex="1">
          <mxGeometry x="138.35294117647058" y="36.84705882352941" width="69.17647058823529" height="51.17647058823529" as="geometry" />
        </mxCell>
        <mxCell id="_V5pevZy3DnA9DBT0Rbr-30" style="edgeStyle=orthogonalEdgeStyle;rounded=0;orthogonalLoop=1;jettySize=auto;html=1;exitX=0.5;exitY=1;exitDx=0;exitDy=0;" parent="_V5pevZy3DnA9DBT0Rbr-35" source="_V5pevZy3DnA9DBT0Rbr-12" target="_V5pevZy3DnA9DBT0Rbr-12" edge="1">
          <mxGeometry relative="1" as="geometry" />
        </mxCell>
        <mxCell id="_V5pevZy3DnA9DBT0Rbr-31" value="xApp" style="rounded=1;whiteSpace=wrap;html=1;" parent="_V5pevZy3DnA9DBT0Rbr-35" vertex="1">
          <mxGeometry x="11.52941176470588" y="25.588235294117645" width="46.11764705882352" height="20.470588235294116" as="geometry" />
        </mxCell>
        <mxCell id="_V5pevZy3DnA9DBT0Rbr-32" value="xApp" style="rounded=1;whiteSpace=wrap;html=1;" parent="_V5pevZy3DnA9DBT0Rbr-35" vertex="1">
          <mxGeometry x="69.17647058823529" y="25.588235294117645" width="46.11764705882352" height="20.470588235294116" as="geometry" />
        </mxCell>
        <mxCell id="_V5pevZy3DnA9DBT0Rbr-46" value="Edge Cloud" style="text;html=1;strokeColor=none;fillColor=none;align=center;verticalAlign=middle;whiteSpace=wrap;rounded=0;" parent="_V5pevZy3DnA9DBT0Rbr-35" vertex="1">
          <mxGeometry x="43.81176470588235" y="169.90588235294115" width="92.23529411764704" height="30.705882352941174" as="geometry" />
        </mxCell>
        <mxCell id="_V5pevZy3DnA9DBT0Rbr-81" value="" style="endArrow=classic;startArrow=classic;html=1;rounded=0;exitX=1;exitY=0.25;exitDx=0;exitDy=0;" parent="_V5pevZy3DnA9DBT0Rbr-35" source="_V5pevZy3DnA9DBT0Rbr-14" target="_V5pevZy3DnA9DBT0Rbr-22" edge="1">
          <mxGeometry width="50" height="50" relative="1" as="geometry">
            <mxPoint x="288.235294117647" y="10.235294117647058" as="sourcePoint" />
            <mxPoint x="345.88235294117646" y="-40.94117647058823" as="targetPoint" />
          </mxGeometry>
        </mxCell>
        <mxCell id="_V5pevZy3DnA9DBT0Rbr-83" value="" style="endArrow=classic;startArrow=classic;html=1;rounded=0;exitX=0.5;exitY=0;exitDx=0;exitDy=0;entryX=0.25;entryY=1;entryDx=0;entryDy=0;" parent="_V5pevZy3DnA9DBT0Rbr-35" source="_V5pevZy3DnA9DBT0Rbr-15" target="_V5pevZy3DnA9DBT0Rbr-22" edge="1">
          <mxGeometry width="50" height="50" relative="1" as="geometry">
            <mxPoint x="288.235294117647" y="10.235294117647058" as="sourcePoint" />
            <mxPoint x="345.88235294117646" y="-40.94117647058823" as="targetPoint" />
          </mxGeometry>
        </mxCell>
        <mxCell id="_V5pevZy3DnA9DBT0Rbr-87" value="" style="endArrow=classic;startArrow=classic;html=1;rounded=0;exitX=1;exitY=0.5;exitDx=0;exitDy=0;entryX=0;entryY=0.5;entryDx=0;entryDy=0;" parent="_V5pevZy3DnA9DBT0Rbr-35" source="_V5pevZy3DnA9DBT0Rbr-12" target="_V5pevZy3DnA9DBT0Rbr-22" edge="1">
          <mxGeometry width="50" height="50" relative="1" as="geometry">
            <mxPoint x="288.235294117647" y="10.235294117647058" as="sourcePoint" />
            <mxPoint x="345.88235294117646" y="-40.94117647058823" as="targetPoint" />
          </mxGeometry>
        </mxCell>
        <mxCell id="_V5pevZy3DnA9DBT0Rbr-36" value="" style="group" parent="_V5pevZy3DnA9DBT0Rbr-96" vertex="1" connectable="0">
          <mxGeometry x="477.31764705882347" y="186.28235294117644" width="219.05882352941174" height="194.4705882352941" as="geometry" />
        </mxCell>
        <mxCell id="_V5pevZy3DnA9DBT0Rbr-37" value="" style="whiteSpace=wrap;html=1;aspect=fixed;" parent="_V5pevZy3DnA9DBT0Rbr-36" vertex="1">
          <mxGeometry width="194.4705882352941" height="194.4705882352941" as="geometry" />
        </mxCell>
        <mxCell id="_V5pevZy3DnA9DBT0Rbr-38" value="NearRT RIC" style="rounded=1;whiteSpace=wrap;html=1;fillColor=#fff2cc;strokeColor=#d6b656;" parent="_V5pevZy3DnA9DBT0Rbr-36" vertex="1">
          <mxGeometry x="11.52941176470588" y="51.17647058823529" width="103.76470588235293" height="38.89411764705882" as="geometry" />
        </mxCell>
        <mxCell id="_V5pevZy3DnA9DBT0Rbr-39" value="DU" style="rounded=1;whiteSpace=wrap;html=1;" parent="_V5pevZy3DnA9DBT0Rbr-36" vertex="1">
          <mxGeometry x="23.05882352941176" y="114.63529411764705" width="57.647058823529406" height="46.05882352941176" as="geometry" />
        </mxCell>
        <mxCell id="_V5pevZy3DnA9DBT0Rbr-40" value="DU" style="rounded=1;whiteSpace=wrap;html=1;" parent="_V5pevZy3DnA9DBT0Rbr-36" vertex="1">
          <mxGeometry x="132.58823529411762" y="114.63529411764705" width="57.647058823529406" height="46.05882352941176" as="geometry" />
        </mxCell>
        <mxCell id="_V5pevZy3DnA9DBT0Rbr-41" value="CU" style="rounded=1;whiteSpace=wrap;html=1;" parent="_V5pevZy3DnA9DBT0Rbr-36" vertex="1">
          <mxGeometry x="138.35294117647058" y="36.84705882352941" width="69.17647058823529" height="51.17647058823529" as="geometry" />
        </mxCell>
        <mxCell id="_V5pevZy3DnA9DBT0Rbr-42" style="edgeStyle=orthogonalEdgeStyle;rounded=0;orthogonalLoop=1;jettySize=auto;html=1;exitX=0.5;exitY=1;exitDx=0;exitDy=0;" parent="_V5pevZy3DnA9DBT0Rbr-36" source="_V5pevZy3DnA9DBT0Rbr-38" target="_V5pevZy3DnA9DBT0Rbr-38" edge="1">
          <mxGeometry relative="1" as="geometry" />
        </mxCell>
        <mxCell id="_V5pevZy3DnA9DBT0Rbr-43" value="xApp" style="rounded=1;whiteSpace=wrap;html=1;" parent="_V5pevZy3DnA9DBT0Rbr-36" vertex="1">
          <mxGeometry x="11.52941176470588" y="25.588235294117645" width="46.11764705882352" height="20.470588235294116" as="geometry" />
        </mxCell>
        <mxCell id="_V5pevZy3DnA9DBT0Rbr-44" value="xApp" style="rounded=1;whiteSpace=wrap;html=1;" parent="_V5pevZy3DnA9DBT0Rbr-36" vertex="1">
          <mxGeometry x="69.17647058823529" y="25.588235294117645" width="46.11764705882352" height="20.470588235294116" as="geometry" />
        </mxCell>
        <mxCell id="_V5pevZy3DnA9DBT0Rbr-45" value="Edge Cloud" style="text;html=1;strokeColor=none;fillColor=none;align=center;verticalAlign=middle;whiteSpace=wrap;rounded=0;" parent="_V5pevZy3DnA9DBT0Rbr-36" vertex="1">
          <mxGeometry x="63.41176470588235" y="167.85882352941175" width="92.23529411764704" height="30.705882352941174" as="geometry" />
        </mxCell>
        <mxCell id="_V5pevZy3DnA9DBT0Rbr-84" value="" style="endArrow=classic;startArrow=classic;html=1;rounded=0;exitX=1;exitY=0;exitDx=0;exitDy=0;entryX=0.117;entryY=0.96;entryDx=0;entryDy=0;entryPerimeter=0;" parent="_V5pevZy3DnA9DBT0Rbr-36" source="_V5pevZy3DnA9DBT0Rbr-39" target="_V5pevZy3DnA9DBT0Rbr-41" edge="1">
          <mxGeometry width="50" height="50" relative="1" as="geometry">
            <mxPoint x="-92.23529411764704" y="10.235294117647058" as="sourcePoint" />
            <mxPoint x="-34.588235294117645" y="-40.94117647058823" as="targetPoint" />
          </mxGeometry>
        </mxCell>
        <mxCell id="_V5pevZy3DnA9DBT0Rbr-86" value="" style="endArrow=classic;startArrow=classic;html=1;rounded=0;exitX=0.5;exitY=0;exitDx=0;exitDy=0;entryX=0.5;entryY=1;entryDx=0;entryDy=0;" parent="_V5pevZy3DnA9DBT0Rbr-36" source="_V5pevZy3DnA9DBT0Rbr-40" target="_V5pevZy3DnA9DBT0Rbr-41" edge="1">
          <mxGeometry width="50" height="50" relative="1" as="geometry">
            <mxPoint x="-92.23529411764704" y="10.235294117647058" as="sourcePoint" />
            <mxPoint x="-34.588235294117645" y="-40.94117647058823" as="targetPoint" />
          </mxGeometry>
        </mxCell>
        <mxCell id="_V5pevZy3DnA9DBT0Rbr-90" value="" style="endArrow=classic;startArrow=classic;html=1;rounded=0;exitX=1;exitY=0.5;exitDx=0;exitDy=0;" parent="_V5pevZy3DnA9DBT0Rbr-36" source="_V5pevZy3DnA9DBT0Rbr-38" target="_V5pevZy3DnA9DBT0Rbr-41" edge="1">
          <mxGeometry width="50" height="50" relative="1" as="geometry">
            <mxPoint x="-92.23529411764704" y="10.235294117647058" as="sourcePoint" />
            <mxPoint x="-34.588235294117645" y="-40.94117647058823" as="targetPoint" />
          </mxGeometry>
        </mxCell>
        <mxCell id="_V5pevZy3DnA9DBT0Rbr-67" value="Regional Cloud" style="text;html=1;align=center;verticalAlign=middle;resizable=0;points=[];autosize=1;strokeColor=none;fillColor=none;" parent="_V5pevZy3DnA9DBT0Rbr-96" vertex="1">
          <mxGeometry x="27.670588235294115" y="96.21176470588235" width="110" height="30" as="geometry" />
        </mxCell>
        <mxCell id="_V5pevZy3DnA9DBT0Rbr-68" value="&lt;font style=&quot;font-size: 8px;&quot;&gt;Cell Site&lt;/font&gt;" style="text;html=1;align=center;verticalAlign=middle;resizable=0;points=[];autosize=1;strokeColor=none;fillColor=none;" parent="_V5pevZy3DnA9DBT0Rbr-96" vertex="1">
          <mxGeometry x="73.78823529411764" y="469.79999999999995" width="50" height="30" as="geometry" />
        </mxCell>
        <mxCell id="_V5pevZy3DnA9DBT0Rbr-69" value="&lt;font style=&quot;font-size: 8px;&quot;&gt;Cell Site&lt;/font&gt;" style="text;html=1;align=center;verticalAlign=middle;resizable=0;points=[];autosize=1;strokeColor=none;fillColor=none;" parent="_V5pevZy3DnA9DBT0Rbr-96" vertex="1">
          <mxGeometry x="164.8705882352941" y="471.8470588235294" width="50" height="30" as="geometry" />
        </mxCell>
        <mxCell id="_V5pevZy3DnA9DBT0Rbr-70" value="&lt;font style=&quot;font-size: 8px;&quot;&gt;Cell Site&lt;/font&gt;" style="text;html=1;align=center;verticalAlign=middle;resizable=0;points=[];autosize=1;strokeColor=none;fillColor=none;" parent="_V5pevZy3DnA9DBT0Rbr-96" vertex="1">
          <mxGeometry x="257.10588235294114" y="470.82352941176464" width="50" height="30" as="geometry" />
        </mxCell>
        <mxCell id="_V5pevZy3DnA9DBT0Rbr-71" value="&lt;font style=&quot;font-size: 8px;&quot;&gt;Cell Site&lt;/font&gt;" style="text;html=1;align=center;verticalAlign=middle;resizable=0;points=[];autosize=1;strokeColor=none;fillColor=none;" parent="_V5pevZy3DnA9DBT0Rbr-96" vertex="1">
          <mxGeometry x="431.2" y="469.79999999999995" width="50" height="30" as="geometry" />
        </mxCell>
        <mxCell id="_V5pevZy3DnA9DBT0Rbr-72" value="&lt;font style=&quot;font-size: 8px;&quot;&gt;Cell Site&lt;/font&gt;" style="text;html=1;align=center;verticalAlign=middle;resizable=0;points=[];autosize=1;strokeColor=none;fillColor=none;" parent="_V5pevZy3DnA9DBT0Rbr-96" vertex="1">
          <mxGeometry x="523.435294117647" y="470.82352941176464" width="50" height="30" as="geometry" />
        </mxCell>
        <mxCell id="_V5pevZy3DnA9DBT0Rbr-74" value="" style="endArrow=classic;html=1;rounded=0;exitX=0.5;exitY=0;exitDx=0;exitDy=0;startArrow=classic;startFill=1;entryX=0.75;entryY=1;entryDx=0;entryDy=0;" parent="_V5pevZy3DnA9DBT0Rbr-96" source="_V5pevZy3DnA9DBT0Rbr-6" target="_V5pevZy3DnA9DBT0Rbr-15" edge="1">
          <mxGeometry width="50" height="50" relative="1" as="geometry">
            <mxPoint x="385.08235294117645" y="196.5176470588235" as="sourcePoint" />
            <mxPoint x="442.72941176470584" y="145.3411764705882" as="targetPoint" />
          </mxGeometry>
        </mxCell>
        <mxCell id="_V5pevZy3DnA9DBT0Rbr-75" value="" style="endArrow=classic;html=1;rounded=0;exitX=0.5;exitY=0;exitDx=0;exitDy=0;entryX=0.25;entryY=1;entryDx=0;entryDy=0;startArrow=classic;startFill=1;" parent="_V5pevZy3DnA9DBT0Rbr-96" source="_V5pevZy3DnA9DBT0Rbr-5" target="_V5pevZy3DnA9DBT0Rbr-15" edge="1">
          <mxGeometry width="50" height="50" relative="1" as="geometry">
            <mxPoint x="298.6117647058823" y="452.4" as="sourcePoint" />
            <mxPoint x="269.7882352941176" y="357.21176470588233" as="targetPoint" />
          </mxGeometry>
        </mxCell>
        <mxCell id="_V5pevZy3DnA9DBT0Rbr-77" value="" style="endArrow=classic;startArrow=classic;html=1;rounded=0;exitX=0.25;exitY=0;exitDx=0;exitDy=0;entryX=0.5;entryY=1;entryDx=0;entryDy=0;" parent="_V5pevZy3DnA9DBT0Rbr-96" source="_V5pevZy3DnA9DBT0Rbr-4" target="_V5pevZy3DnA9DBT0Rbr-14" edge="1">
          <mxGeometry width="50" height="50" relative="1" as="geometry">
            <mxPoint x="96.84705882352941" y="431.92941176470583" as="sourcePoint" />
            <mxPoint x="154.4941176470588" y="380.7529411764706" as="targetPoint" />
          </mxGeometry>
        </mxCell>
        <mxCell id="_V5pevZy3DnA9DBT0Rbr-78" value="" style="endArrow=classic;startArrow=classic;html=1;rounded=0;exitX=0.5;exitY=0;exitDx=0;exitDy=0;entryX=0.25;entryY=1;entryDx=0;entryDy=0;" parent="_V5pevZy3DnA9DBT0Rbr-96" source="_V5pevZy3DnA9DBT0Rbr-8" target="_V5pevZy3DnA9DBT0Rbr-39" edge="1">
          <mxGeometry width="50" height="50" relative="1" as="geometry">
            <mxPoint x="385.08235294117645" y="196.5176470588235" as="sourcePoint" />
            <mxPoint x="442.72941176470584" y="145.3411764705882" as="targetPoint" />
          </mxGeometry>
        </mxCell>
        <mxCell id="_V5pevZy3DnA9DBT0Rbr-79" value="" style="endArrow=classic;startArrow=classic;html=1;rounded=0;entryX=0.75;entryY=0;entryDx=0;entryDy=0;exitX=0.5;exitY=1;exitDx=0;exitDy=0;" parent="_V5pevZy3DnA9DBT0Rbr-96" source="_V5pevZy3DnA9DBT0Rbr-39" target="_V5pevZy3DnA9DBT0Rbr-9" edge="1">
          <mxGeometry width="50" height="50" relative="1" as="geometry">
            <mxPoint x="385.08235294117645" y="196.5176470588235" as="sourcePoint" />
            <mxPoint x="442.72941176470584" y="145.3411764705882" as="targetPoint" />
          </mxGeometry>
        </mxCell>
        <mxCell id="_V5pevZy3DnA9DBT0Rbr-80" value="" style="endArrow=classic;startArrow=classic;html=1;rounded=0;entryX=0.5;entryY=0;entryDx=0;entryDy=0;" parent="_V5pevZy3DnA9DBT0Rbr-96" source="_V5pevZy3DnA9DBT0Rbr-40" target="_V5pevZy3DnA9DBT0Rbr-10" edge="1">
          <mxGeometry width="50" height="50" relative="1" as="geometry">
            <mxPoint x="385.08235294117645" y="196.5176470588235" as="sourcePoint" />
            <mxPoint x="442.72941176470584" y="145.3411764705882" as="targetPoint" />
          </mxGeometry>
        </mxCell>
        <mxCell id="_V5pevZy3DnA9DBT0Rbr-91" value="" style="endArrow=classic;startArrow=classic;html=1;rounded=0;exitX=0.25;exitY=0;exitDx=0;exitDy=0;entryX=0.578;entryY=1;entryDx=0;entryDy=0;entryPerimeter=0;dashed=1;" parent="_V5pevZy3DnA9DBT0Rbr-96" source="_V5pevZy3DnA9DBT0Rbr-8" target="_V5pevZy3DnA9DBT0Rbr-1" edge="1">
          <mxGeometry width="50" height="50" relative="1" as="geometry">
            <mxPoint x="385.08235294117645" y="196.5176470588235" as="sourcePoint" />
            <mxPoint x="442.72941176470584" y="145.3411764705882" as="targetPoint" />
          </mxGeometry>
        </mxCell>
        <mxCell id="_V5pevZy3DnA9DBT0Rbr-92" style="edgeStyle=orthogonalEdgeStyle;rounded=0;orthogonalLoop=1;jettySize=auto;html=1;exitX=0;exitY=0.5;exitDx=0;exitDy=0;entryX=0.605;entryY=1.01;entryDx=0;entryDy=0;entryPerimeter=0;dashed=1;startArrow=classic;startFill=1;" parent="_V5pevZy3DnA9DBT0Rbr-96" source="_V5pevZy3DnA9DBT0Rbr-39" target="_V5pevZy3DnA9DBT0Rbr-1" edge="1">
          <mxGeometry relative="1" as="geometry" />
        </mxCell>
        <mxCell id="_V5pevZy3DnA9DBT0Rbr-93" style="edgeStyle=orthogonalEdgeStyle;rounded=0;orthogonalLoop=1;jettySize=auto;html=1;exitX=1;exitY=0.5;exitDx=0;exitDy=0;entryX=0.981;entryY=1.02;entryDx=0;entryDy=0;entryPerimeter=0;dashed=1;startArrow=classic;startFill=1;" parent="_V5pevZy3DnA9DBT0Rbr-96" source="_V5pevZy3DnA9DBT0Rbr-40" target="_V5pevZy3DnA9DBT0Rbr-1" edge="1">
          <mxGeometry relative="1" as="geometry">
            <Array as="points">
              <mxPoint x="740.1882352941176" y="324.45882352941175" />
            </Array>
          </mxGeometry>
        </mxCell>
        <mxCell id="_V5pevZy3DnA9DBT0Rbr-94" style="edgeStyle=orthogonalEdgeStyle;rounded=0;orthogonalLoop=1;jettySize=auto;html=1;exitX=0.5;exitY=0;exitDx=0;exitDy=0;entryX=0.873;entryY=1.01;entryDx=0;entryDy=0;entryPerimeter=0;dashed=1;startArrow=classic;startFill=1;" parent="_V5pevZy3DnA9DBT0Rbr-96" source="_V5pevZy3DnA9DBT0Rbr-41" target="_V5pevZy3DnA9DBT0Rbr-1" edge="1">
          <mxGeometry relative="1" as="geometry" />
        </mxCell>
        <mxCell id="_V5pevZy3DnA9DBT0Rbr-97" style="edgeStyle=orthogonalEdgeStyle;rounded=0;orthogonalLoop=1;jettySize=auto;html=1;exitX=0;exitY=0.5;exitDx=0;exitDy=0;dashed=1;dashPattern=1 4;startArrow=classic;startFill=1;strokeWidth=3;endSize=4;startSize=4;" parent="_V5pevZy3DnA9DBT0Rbr-96" source="_V5pevZy3DnA9DBT0Rbr-38" target="_V5pevZy3DnA9DBT0Rbr-1" edge="1">
          <mxGeometry relative="1" as="geometry" />
        </mxCell>
        <mxCell id="_V5pevZy3DnA9DBT0Rbr-101" style="edgeStyle=orthogonalEdgeStyle;rounded=0;orthogonalLoop=1;jettySize=auto;html=1;exitX=0;exitY=0.5;exitDx=0;exitDy=0;dashed=1;dashPattern=1 4;startArrow=classic;startFill=1;strokeWidth=3;endSize=4;startSize=4;entryX=0.5;entryY=1;entryDx=0;entryDy=0;" parent="_V5pevZy3DnA9DBT0Rbr-96" source="_V5pevZy3DnA9DBT0Rbr-12" target="_V5pevZy3DnA9DBT0Rbr-1" edge="1">
          <mxGeometry relative="1" as="geometry">
            <mxPoint x="500.37647058823524" y="267.1411764705882" as="sourcePoint" />
            <mxPoint x="396.6117647058823" y="135.10588235294117" as="targetPoint" />
            <Array as="points">
              <mxPoint x="73.78823529411764" y="256.90588235294115" />
              <mxPoint x="73.78823529411764" y="165.81176470588235" />
              <mxPoint x="385.08235294117645" y="165.81176470588235" />
            </Array>
          </mxGeometry>
        </mxCell>
        <mxCell id="2OH6HGOx2Zm9SYHUV7xp-4" value="5G Core" style="ellipse;whiteSpace=wrap;html=1;dashed=1;" vertex="1" parent="1">
          <mxGeometry x="860" y="476.72" width="120" height="80" as="geometry" />
        </mxCell>
        <mxCell id="2OH6HGOx2Zm9SYHUV7xp-3" value="" style="endArrow=classic;startArrow=classic;html=1;rounded=0;exitX=1;exitY=0.5;exitDx=0;exitDy=0;entryX=0;entryY=0.5;entryDx=0;entryDy=0;" edge="1" parent="1" source="_V5pevZy3DnA9DBT0Rbr-41" target="2OH6HGOx2Zm9SYHUV7xp-4">
          <mxGeometry width="50" height="50" relative="1" as="geometry">
            <mxPoint x="390" y="460" as="sourcePoint" />
            <mxPoint x="710" y="511" as="targetPoint" />
          </mxGeometry>
        </mxCell>
      </root>
    </mxGraphModel>
  </diagram>
</mxfile>
